<?xml version="1.0" encoding="UTF-8"?>
<svg width="60px" height="79px" viewBox="0 0 60 79" version="1.1" xmlns="http://www.w3.org/2000/svg" xmlns:xlink="http://www.w3.org/1999/xlink">
    <!-- Generator: Sketch 57.1 (83088) - https://sketch.com -->
    <title>Group 5</title>
    <desc>Created with Sketch.</desc>
    <g id="Welcome" stroke="none" stroke-width="1" fill="none" fill-rule="evenodd">
        <g id="Desktop-HD" transform="translate(-40.000000, -1379.000000)" stroke="#2B2B2B" stroke-width="3">
            <g id="Group-5" transform="translate(40.000000, 1379.000000)">
                <path d="M36.6109127,2.23223305 C36.1420718,1.7633921 35.506187,1.5 34.8431458,1.5 L7,1.5 C3.96243388,1.5 1.5,3.96243388 1.5,7 L1.5,72 C1.5,75.0375661 3.96243388,77.5 7,77.5 L53,77.5 C56.0375661,77.5 58.5,75.0375661 58.5,72 L58.5,25.5710678 C58.5,24.6428101 58.1312511,23.7525714 57.4748737,23.0961941 L36.6109127,2.23223305 Z" id="Path"></path>
                <path d="M34.5,2.5 L34.5,20.5 C34.5,22.709139 36.290861,24.5 38.5,24.5 L57.7223509,24.5 L57.7223509,24.5" id="Line-3" stroke-linecap="square"></path>
                <path d="M32.7781746,36 L25.7781746,60" id="Line-4" stroke-linecap="square"></path>
                <polyline id="Line-5" stroke-linecap="square" transform="translate(19.500000, 47.500000) rotate(45.000000) translate(-19.500000, -47.500000) " points="14 42 14 53 25 53"></polyline>
                <polyline id="Line-5" stroke-linecap="square" transform="translate(39.500000, 47.500000) scale(-1, 1) rotate(45.000000) translate(-39.500000, -47.500000) " points="34 42 34 53 45 53"></polyline>
            </g>
        </g>
    </g>
</svg>