<?xml version="1.0" encoding="UTF-8"?>
<svg width="86px" height="58px" viewBox="0 0 86 58" version="1.1" xmlns="http://www.w3.org/2000/svg" xmlns:xlink="http://www.w3.org/1999/xlink">
    <!-- Generator: Sketch 57.1 (83088) - https://sketch.com -->
    <title>Group 4</title>
    <desc>Created with Sketch.</desc>
    <g id="Welcome" stroke="none" stroke-width="1" fill="none" fill-rule="evenodd">
        <g id="Desktop-HD" transform="translate(-21.000000, -1230.000000)">
            <g id="Group-4" transform="translate(13.000000, 1230.000000)">
                <path d="M54.1701474,2.89091901 C52.1358135,2.07319655 49.8641865,2.07319655 47.8298526,2.89091901 L12.1009619,17.2525319 C11.2160153,17.6082458 10.5145625,18.3096986 10.1588486,19.1946452 C9.43792109,20.9881723 10.3074348,23.0265405 12.100941,23.7474597 L27.6723704,30.0062925 L24.9012044,43.4334992 C24.2369637,46.651622 26.0789426,49.8593335 29.1931669,50.9077309 L37.2285805,53.6128369 C46.4875648,56.7298555 56.5124352,56.7298555 65.7714195,53.6128369 L73.8068331,50.9077309 C76.9210574,49.8593335 78.7630363,46.651622 78.0987997,43.4335192 L75.2505673,29.6353077 L89.8990381,23.7474681 C90.7839847,23.3917542 91.4854375,22.6903014 91.8411514,21.8053548 C92.5620789,20.0118277 91.6925652,17.9734595 89.8990381,17.2525319 L54.1701474,2.89091901 Z" id="Combined-Shape" stroke="#2B2B2B" stroke-width="3"></path>
                <path d="M54.1701474,2.89091901 C52.1358135,2.07319655 49.8641865,2.07319655 47.8298526,2.89091901 L12.1009619,17.2525319 C11.2160153,17.6082458 10.5145625,18.3096986 10.1588486,19.1946452 C9.43792109,20.9881723 10.3074348,23.0265405 12.1009619,23.7474681 L47.8298526,38.109081 C49.8641865,38.9268035 52.1358135,38.9268035 54.1701474,38.109081 L89.8990381,23.7474681 C90.7839847,23.3917542 91.4854375,22.6903014 91.8411514,21.8053548 C92.5620789,20.0118277 91.6925652,17.9734595 89.8990381,17.2525319 L54.1701474,2.89091901 Z" id="Polygon" stroke="#252525" stroke-width="3"></path>
                <path d="M51,21 L20.1459057,27.4955988 C15.9812125,28.3723763 13,32.046562 13,36.3025469 L13,50.5 L13,50.5" id="Line" stroke="#2B2B2B" stroke-width="3" stroke-linecap="round" stroke-linejoin="round"></path>
                <path d="M13,35 L17.3397404,51.4910134 C17.6208459,52.5592144 16.9827789,53.6530435 15.9145779,53.9341491 C15.7484478,53.9778675 15.5773775,54 15.4055913,54 L10.5944087,54 C9.48983921,54 8.59440871,53.1045695 8.59440871,52 C8.59440871,51.8282138 8.6165412,51.6571434 8.66025963,51.4910134 L13,35 L13,35 Z" id="Triangle" fill="#2B2B2B"></path>
                <ellipse id="Oval" fill="#2B2B2B" cx="52" cy="20.5" rx="6" ry="3.5"></ellipse>
                <circle id="Oval" fill="#2B2B2B" cx="13" cy="38" r="4"></circle>
            </g>
        </g>
    </g>
</svg>