<?xml version="1.0" encoding="UTF-8"?>
<svg class="labslogo" viewBox="0 0 284.79 68.55" xmlns="http://www.w3.org/2000/svg">
<path class="cls-1" d="M299.52,451.55a8.32,8.32,0,0,1-7.83-5.52l-9.79,21.66a2,2,0,0,0,1,2.66l16.63,7.59a1.42,1.42,0,0,0,2.11-1.15l4.09-28A8.29,8.29,0,0,1,299.52,451.55Z" transform="translate(-252.1 -409.56)"></path>
<path class="cls-1" d="M317.56,454.26l-9.79-10a8.32,8.32,0,0,1-5.9,6.94l12.28,9.21a1.13,1.13,0,0,0,1.71-.37l2-3.67A1.92,1.92,0,0,0,317.56,454.26Z" transform="translate(-252.1 -409.56)"></path>
<path class="cls-1" d="M308.82,418.46l-2.81-.92a1.53,1.53,0,0,0-1.82.8l-6.9,15.26-23-23.47a1.84,1.84,0,0,0-2.73.07l-8.39,9.51a1.82,1.82,0,0,0,.28,2.7l27.75,20.8A8.32,8.32,0,0,1,307,439.72l2.85-19.53A1.65,1.65,0,0,0,308.82,418.46Z" transform="translate(-252.1 -409.56)"></path>
<circle class="cls-2" cx="47.41" cy="33.68" r="5.46"></circle>
<path class="cls-2" d="M330.33,436.62l-2.08-3.81a1.93,1.93,0,0,0-1.95-.91l-22,4.5a8.32,8.32,0,0,1,2.82,10.27l22.63-8.43A1.13,1.13,0,0,0,330.33,436.62Z" transform="translate(-252.1 -409.56)"></path>
<path class="cls-2" d="M291.2,443.24a8.27,8.27,0,0,1,1.27-4.42l-38.91,8.1a1.8,1.8,0,0,0-1.37,2.32l4.38,14.29a1.86,1.86,0,0,0,2.46,1.21l37-13.95A8.32,8.32,0,0,1,291.2,443.24Z" transform="translate(-252.1 -409.56)"></path>
<path class="cls-3" d="M340.57,455.9V430.65h10.15c5.07,0,7.91,3.48,7.91,7.61s-2.92,7.61-7.91,7.61h-7v10h-3.14Zm14.8-17.64a4.69,4.69,0,0,0-5-4.81h-6.63v9.62h6.63A4.69,4.69,0,0,0,355.37,438.26Z" transform="translate(-252.1 -409.56)"></path>
<path class="cls-3" d="M360.91,433.11a1.91,1.91,0,1,1,3.82,0A1.91,1.91,0,0,1,360.91,433.11Zm0.49,22.79V437.62h2.84V455.9H361.4Z" transform="translate(-252.1 -409.56)"></path>
<path class="cls-3" d="M374.87,455.9l-7.61-18.29h3.07l6.09,15,6.06-15h3.1L378,455.9h-3.1Z" transform="translate(-252.1 -409.56)"></path>
<path class="cls-3" d="M386.68,446.74c0-5.3,3.48-9.58,9-9.58s9,4.28,9,9.58-3.48,9.62-9,9.62S386.68,452,386.68,446.74Zm15.1,0c0-3.71-2.16-7-6.06-7s-6.09,3.33-6.09,7,2.2,7.08,6.09,7.08S401.79,450.49,401.79,446.74Z" transform="translate(-252.1 -409.56)"></path>
<path class="cls-3" d="M409.15,452.08v-12h-3v-2.5h3v-5H412v5h3.71v2.5H412v11.36c0,1.36.61,2.35,1.86,2.35a2.74,2.74,0,0,0,1.93-.76l0.83,2.12a4.64,4.64,0,0,1-3.41,1.17C410.51,456.36,409.15,454.8,409.15,452.08Z" transform="translate(-252.1 -409.56)"></path>
<path class="cls-3" d="M431.63,455.9v-2.08a7.91,7.91,0,0,1-6.06,2.54c-3.1,0-6.4-2.08-6.4-6.06s3.29-6,6.4-6a7.64,7.64,0,0,1,6.06,2.5v-3.29c0-2.46-2-3.86-4.62-3.86a7.26,7.26,0,0,0-5.6,2.54l-1.33-2a9.57,9.57,0,0,1,7.31-3c3.86,0,7.08,1.74,7.08,6.17V455.9h-2.84Zm0-3.86V448.6a6.12,6.12,0,0,0-5-2.27c-2.65,0-4.51,1.67-4.51,4s1.85,4,4.51,4A6.12,6.12,0,0,0,431.63,452Z" transform="translate(-252.1 -409.56)"></path>
<path class="cls-3" d="M439.6,455.9V430.65h2.84V455.9H439.6Z" transform="translate(-252.1 -409.56)"></path>
<path class="cls-3" d="M456.39,455.9V430.65h5.38v20.52h10.68v4.73H456.39Z" transform="translate(-252.1 -409.56)"></path>
<path class="cls-3" d="M486.38,455.9V454a7.57,7.57,0,0,1-5.79,2.35c-2.91,0-6.36-2-6.36-6.06,0-4.28,3.44-5.91,6.36-5.91a7.52,7.52,0,0,1,5.79,2.23v-2.46c0-1.85-1.59-3.07-4-3.07a7.69,7.69,0,0,0-5.34,2.16L475.21,440a12,12,0,0,1,8-2.88c4.16,0,8,1.67,8,6.93V455.9h-4.81Zm0-4.39v-2.27a4.81,4.81,0,0,0-3.86-1.59c-1.89,0-3.44,1-3.44,2.76s1.55,2.69,3.44,2.69A4.81,4.81,0,0,0,486.38,451.51Z" transform="translate(-252.1 -409.56)"></path>
<path class="cls-3" d="M495,455.9V430.65h4.81V440a7,7,0,0,1,5.64-2.8c4.66,0,8.1,3.63,8.1,9.62s-3.48,9.58-8.1,9.58a7.1,7.1,0,0,1-5.64-2.8v2.35H495Zm8.93-3.82c2.8,0,4.66-2.12,4.66-5.3s-1.86-5.34-4.66-5.34a5.3,5.3,0,0,0-4.13,2.12V450A5.35,5.35,0,0,0,503.92,452.08Z" transform="translate(-252.1 -409.56)"></path>
<path class="cls-3" d="M515.17,453.52l2.08-3.37a10.46,10.46,0,0,0,6.32,2.5c2.08,0,3.07-.83,3.07-2,0-3-10.87-.57-10.87-7.76,0-3.07,2.69-5.75,7.5-5.75a11.68,11.68,0,0,1,7.38,2.5L528.72,443a7.72,7.72,0,0,0-5.41-2.12c-1.74,0-2.88.8-2.88,1.82,0,2.73,10.83.45,10.83,7.84,0,3.33-2.84,5.87-7.91,5.87A12.31,12.31,0,0,1,515.17,453.52Z" transform="translate(-252.1 -409.56)"></path>
<path class="cls-3" d="M534.57,443.19a2.33,2.33,0,1,1,2.33-2.33A2.33,2.33,0,0,1,534.57,443.19Zm0-4.3a2,2,0,1,0,2,2A2,2,0,0,0,534.57,438.89Zm0.64,3.32-0.69-1.05h-0.46v1.05h-0.37v-2.67h1.09a0.83,0.83,0,0,1,.87.81,0.78,0.78,0,0,1-.68.79l0.71,1.07h-0.46Zm-0.44-2.34h-0.71v0.94h0.71A0.47,0.47,0,1,0,534.77,439.86Z" transform="translate(-252.1 -409.56)"></path>
</svg>